<svg width="21" height="20" viewBox="0 0 21 20" fill="none" xmlns="http://www.w3.org/2000/svg">
<path d="M3.38889 5.55556H6.05556C6.2913 5.55556 6.5174 5.4619 6.68409 5.29521C6.85079 5.12851 6.94444 4.90241 6.94444 4.66667V3.77778C6.94444 3.30628 7.13175 2.8541 7.46514 2.5207C7.79854 2.1873 8.25073 2 8.72222 2C9.19372 2 9.6459 2.1873 9.9793 2.5207C10.3127 2.8541 10.5 3.30628 10.5 3.77778V4.66667C10.5 4.90241 10.5937 5.12851 10.7603 5.29521C10.927 5.4619 11.1531 5.55556 11.3889 5.55556H14.0556C14.2913 5.55556 14.5174 5.64921 14.6841 5.81591C14.8508 5.9826 14.9444 6.2087 14.9444 6.44444V9.11111C14.9444 9.34686 15.0381 9.57295 15.2048 9.73965C15.3715 9.90635 15.5976 10 15.8333 10H16.7222C17.1937 10 17.6459 10.1873 17.9793 10.5207C18.3127 10.8541 18.5 11.3063 18.5 11.7778C18.5 12.2493 18.3127 12.7015 17.9793 13.0349C17.6459 13.3683 17.1937 13.5556 16.7222 13.5556H15.8333C15.5976 13.5556 15.3715 13.6492 15.2048 13.8159C15.0381 13.9826 14.9444 14.2087 14.9444 14.4444V17.1111C14.9444 17.3469 14.8508 17.573 14.6841 17.7397C14.5174 17.9064 14.2913 18 14.0556 18H11.3889C11.1531 18 10.927 17.9064 10.7603 17.7397C10.5937 17.573 10.5 17.3469 10.5 17.1111V16.2222C10.5 15.7507 10.3127 15.2985 9.9793 14.9651C9.6459 14.6317 9.19372 14.4444 8.72222 14.4444C8.25073 14.4444 7.79854 14.6317 7.46514 14.9651C7.13175 15.2985 6.94444 15.7507 6.94444 16.2222V17.1111C6.94444 17.3469 6.85079 17.573 6.68409 17.7397C6.5174 17.9064 6.2913 18 6.05556 18H3.38889C3.15314 18 2.92705 17.9064 2.76035 17.7397C2.59365 17.573 2.5 17.3469 2.5 17.1111V14.4444C2.5 14.2087 2.59365 13.9826 2.76035 13.8159C2.92705 13.6492 3.15314 13.5556 3.38889 13.5556H4.27778C4.74927 13.5556 5.20146 13.3683 5.53486 13.0349C5.86825 12.7015 6.05556 12.2493 6.05556 11.7778C6.05556 11.3063 5.86825 10.8541 5.53486 10.5207C5.20146 10.1873 4.74927 10 4.27778 10H3.38889C3.15314 10 2.92705 9.90635 2.76035 9.73965C2.59365 9.57295 2.5 9.34686 2.5 9.11111V6.44444C2.5 6.2087 2.59365 5.9826 2.76035 5.81591C2.92705 5.64921 3.15314 5.55556 3.38889 5.55556Z" stroke="#64748B" stroke-width="2" stroke-linecap="round" stroke-linejoin="round"/>
</svg>
