<svg width="15" height="16" viewBox="0 0 15 16" fill="none" xmlns="http://www.w3.org/2000/svg">
<path d="M11.6667 9.66665V14.6666M9.16667 12.1666H14.1667M2.5 6.33331H4.16667C5.08714 6.33331 5.83334 5.58712 5.83334 4.66665V2.99998C5.83334 2.07951 5.08714 1.33331 4.16667 1.33331H2.5C1.57953 1.33331 0.833336 2.07951 0.833336 2.99998V4.66665C0.833336 5.58712 1.57953 6.33331 2.5 6.33331ZM10.8333 6.33331H12.5C13.4205 6.33331 14.1667 5.58712 14.1667 4.66665V2.99998C14.1667 2.07951 13.4205 1.33331 12.5 1.33331H10.8333C9.91286 1.33331 9.16667 2.07951 9.16667 2.99998V4.66665C9.16667 5.58712 9.91286 6.33331 10.8333 6.33331ZM2.5 14.6666H4.16667C5.08714 14.6666 5.83334 13.9205 5.83334 13V11.3333C5.83334 10.4128 5.08714 9.66665 4.16667 9.66665H2.5C1.57953 9.66665 0.833336 10.4128 0.833336 11.3333V13C0.833336 13.9205 1.57953 14.6666 2.5 14.6666Z" stroke="#4F46E5" stroke-width="1.5" stroke-linecap="round" stroke-linejoin="round"/>
</svg>
