<svg width="20" height="20" viewBox="0 0 20 20" fill="none" xmlns="http://www.w3.org/2000/svg">
<g clip-path="url(#clip0_44_776)">
<path d="M14.1666 12.6666V17.6666M11.6666 15.1666H16.6666M4.99992 9.33331H6.66659C7.58706 9.33331 8.33325 8.58712 8.33325 7.66665V5.99998C8.33325 5.07951 7.58706 4.33331 6.66659 4.33331H4.99992C4.07944 4.33331 3.33325 5.07951 3.33325 5.99998V7.66665C3.33325 8.58712 4.07944 9.33331 4.99992 9.33331ZM13.3333 9.33331H14.9999C15.9204 9.33331 16.6666 8.58712 16.6666 7.66665V5.99998C16.6666 5.07951 15.9204 4.33331 14.9999 4.33331H13.3333C12.4128 4.33331 11.6666 5.07951 11.6666 5.99998V7.66665C11.6666 8.58712 12.4128 9.33331 13.3333 9.33331ZM4.99992 17.6666H6.66659C7.58706 17.6666 8.33325 16.9205 8.33325 16V14.3333C8.33325 13.4128 7.58706 12.6666 6.66659 12.6666H4.99992C4.07944 12.6666 3.33325 13.4128 3.33325 14.3333V16C3.33325 16.9205 4.07944 17.6666 4.99992 17.6666Z" stroke="#64748B" stroke-width="1.5" stroke-linecap="round" stroke-linejoin="round"/>
</g>
<defs>
<clipPath id="clip0_44_776">
<rect width="20" height="20" fill="white"/>
</clipPath>
</defs>
</svg>
