<svg width="21" height="20" viewBox="0 0 21 20" fill="none" xmlns="http://www.w3.org/2000/svg">
<path d="M16.8069 8.87982V9.52742C16.807 9.93496 16.66 10.3288 16.393 10.6367C16.126 10.9446 15.7569 11.1459 15.3535 11.2035L12.3347 11.6353C11.9313 11.6929 11.5622 11.8942 11.2952 12.2021C11.0282 12.51 10.8812 12.9039 10.8812 13.3114V14.8055" stroke="#64748B" stroke-width="1.5" stroke-linecap="round" stroke-linejoin="round"/>
<path d="M4.95555 10.5729V10.7972C4.95553 11.2048 5.1025 11.5986 5.3695 11.9065C5.6365 12.2144 6.0056 12.4157 6.40904 12.4733L9.42776 12.9051C9.8312 12.9627 10.2003 13.164 10.4673 13.4719C10.7343 13.7798 10.8813 14.1737 10.8812 14.5812V14.8055M9.20978 5.45309C8.49658 5.41245 8.17109 4.76105 8.5461 4.15282C8.77661 3.78057 9.01625 3.41405 9.2648 3.0536C9.59283 2.57616 9.87092 2.22358 10.0991 1.96327C10.5452 1.45536 11.2165 1.45536 11.663 1.96327C11.8912 2.22316 12.1692 2.57616 12.4968 3.0536C12.7455 3.41391 12.9853 3.78028 13.216 4.1524C13.591 4.76105 13.2655 5.41245 12.5519 5.45309C12.1328 5.47679 11.5868 5.49372 10.8812 5.49372C10.1757 5.49372 9.62923 5.47679 9.20978 5.45309Z" stroke="#64748B" stroke-width="1.5" stroke-linecap="round" stroke-linejoin="round"/>
<path d="M10.8812 14.8055C11.4425 14.8055 11.9808 15.0284 12.3777 15.4253C12.7746 15.8222 12.9976 16.3605 12.9976 16.9218C12.9976 17.4831 12.7746 18.0214 12.3777 18.4183C11.9808 18.8151 11.4425 19.0381 10.8812 19.0381C10.32 19.0381 9.78167 18.8151 9.38479 18.4183C8.9879 18.0214 8.76493 17.4831 8.76493 16.9218C8.76493 16.3605 8.9879 15.8222 9.38479 15.4253C9.78167 15.0284 10.32 14.8055 10.8812 14.8055ZM10.8812 14.8055V5.49366M6.64861 8.87978C6.64861 9.3288 6.47023 9.75944 6.15272 10.0769C5.83522 10.3945 5.40458 10.5728 4.95555 10.5728C4.50653 10.5728 4.07589 10.3945 3.75838 10.0769C3.44087 9.75944 3.2625 9.3288 3.2625 8.87978C3.2625 8.43075 3.44087 8.00012 3.75838 7.68261C4.07589 7.3651 4.50653 7.18672 4.95555 7.18672C5.40458 7.18672 5.83522 7.3651 6.15272 7.68261C6.47023 8.00012 6.64861 8.43075 6.64861 8.87978ZM18.4882 6.47775C18.4687 5.93598 18.0581 5.52499 17.5159 5.50552C17.2797 5.49735 17.0433 5.4934 16.8069 5.49366C16.5341 5.49395 16.2978 5.4979 16.098 5.50552C15.5562 5.52499 15.1452 5.93555 15.1257 6.47775C15.1176 6.71399 15.1136 6.95035 15.1139 7.18672C15.1142 7.45958 15.1181 7.69591 15.1257 7.89569C15.1452 8.43747 15.5558 8.84846 16.098 8.86793C16.298 8.87554 16.5344 8.87949 16.8069 8.87978C17.0798 8.87949 17.3161 8.87554 17.5159 8.86793C18.0577 8.84846 18.4687 8.43789 18.4882 7.89569C18.4958 7.69591 18.4997 7.45958 18.5 7.18672C18.4997 6.91386 18.4958 6.67753 18.4882 6.47775Z" stroke="#64748B" stroke-width="1.5" stroke-linecap="round" stroke-linejoin="round"/>
</svg>
