<svg width="21" height="20" viewBox="0 0 21 20" fill="none" xmlns="http://www.w3.org/2000/svg">
<path d="M11.7632 10.8421L14.7105 7.47363M12.1842 12.5263C12.1842 13.4564 11.4302 14.2105 10.5 14.2105C9.56983 14.2105 8.81579 13.4564 8.81579 12.5263C8.81579 11.5961 9.56983 10.8421 10.5 10.8421C11.4302 10.8421 12.1842 11.5961 12.1842 12.5263Z" stroke="#64748B" stroke-width="1.5" stroke-linecap="round"/>
<path d="M5.44736 9.99996C5.44736 7.20947 7.7095 4.94733 10.5 4.94733C11.4203 4.94733 12.2831 5.19338 13.0263 5.62328" stroke="#64748B" stroke-width="1.5" stroke-linecap="round"/>
<path d="M2.5 10C2.5 6.22876 2.5 4.34315 3.67157 3.17157C4.84315 2 6.72876 2 10.5 2C14.2712 2 16.1569 2 17.3284 3.17157C18.5 4.34315 18.5 6.22876 18.5 10C18.5 13.7712 18.5 15.6569 17.3284 16.8284C16.1569 18 14.2712 18 10.5 18C6.72876 18 4.84315 18 3.67157 16.8284C2.5 15.6569 2.5 13.7712 2.5 10Z" stroke="#64748B" stroke-width="1.5"/>
</svg>
